<svg version="1.1" id="Layer_1" xmlns="http://www.w3.org/2000/svg" xmlns:xlink="http://www.w3.org/1999/xlink" x="0px" y="0px"
	 width="100%" viewBox="0 0 736 656" enable-background="new 0 0 736 656" xml:space="preserve">
<path fill="#000000" opacity="1.000000" stroke="none" 
	d="
M422.652161,540.822632 
	C422.526306,491.711639 423.503754,443.061279 420.314514,394.463562 
	C420.107910,402.988007 420.114563,411.514008 419.509094,420.037170 
	C417.819672,443.819672 418.748688,467.667175 418.123413,491.475677 
	C417.681488,508.301422 417.281647,525.121704 417.310577,541.951843 
	C417.315857,545.018616 417.288330,547.678833 412.873688,547.167236 
	C409.334900,546.757141 405.664764,548.536499 405.451721,541.943115 
	C404.503967,512.607971 405.602142,483.294891 406.071869,453.989624 
	C406.471558,429.055634 408.207092,404.130341 409.827698,379.232208 
	C411.501282,353.519958 413.562164,327.828308 415.864777,302.164520 
	C416.519470,294.867615 416.669861,287.665009 416.646576,280.193604 
	C411.763763,284.791138 407.027588,288.838745 402.768829,293.338196 
	C390.262299,306.551605 378.848328,320.587311 369.844696,336.533875 
	C362.798157,349.014221 360.769623,362.705475 358.139526,376.461487 
	C355.777954,388.812775 360.596985,399.606567 363.750641,410.587097 
	C372.516846,441.109802 381.478577,471.568024 389.398468,502.330170 
	C393.088318,516.662231 395.396179,531.224121 398.190308,546.018188 
	C394.485168,546.799011 391.077240,546.190613 387.306152,546.150146 
	C383.673798,534.748291 381.243561,523.079895 378.370941,511.517487 
	C369.911346,477.467560 360.871216,443.576965 351.007538,409.893768 
	C343.695160,384.923157 335.523254,360.354889 324.577637,336.708527 
	C310.104584,305.441620 288.703308,281.188202 256.285461,267.823395 
	C243.863892,262.702423 230.737396,260.663635 217.455170,259.319275 
	C177.806931,255.306320 144.317657,271.183350 112.251564,291.730072 
	C104.245384,296.860138 96.668221,302.574432 89.227890,308.484283 
	C85.853760,311.164368 82.343513,313.667206 77.945618,315.446350 
	C76.925186,311.395477 78.865929,308.199097 80.243484,304.997070 
	C86.046356,291.508881 94.985992,280.060669 104.701141,269.311646 
	C119.808434,252.596619 137.386978,238.946320 157.956253,229.471191 
	C174.346481,221.921127 191.759995,218.656754 209.686020,217.646851 
	C234.404587,216.254272 258.017334,220.972870 280.885162,230.124054 
	C284.720825,231.659012 288.713562,232.820969 294.001007,233.224396 
	C287.396362,209.052200 280.245178,185.689819 268.102814,164.126511 
	C256.079437,142.774567 241.891663,122.906761 226.402069,103.657516 
	C228.405869,101.819084 230.143143,102.994514 231.921936,103.699997 
	C258.021454,114.051353 278.290741,131.588089 296.002869,153.149109 
	C321.766052,184.510712 335.808716,220.866486 344.826996,259.702942 
	C346.824219,268.303802 347.541260,277.102051 348.180481,285.859711 
	C348.518494,290.490570 349.095337,294.730103 352.371979,298.593475 
	C354.168793,297.312653 354.743591,295.205719 355.558411,293.341644 
	C364.826935,272.137939 378.036163,253.741486 394.871185,237.907318 
	C408.681305,224.918213 423.746948,213.797195 441.452240,206.618073 
	C442.674347,206.122543 443.358795,205.447540 443.539276,204.139328 
	C446.069092,185.800354 456.845856,172.344803 469.386322,159.765976 
	C474.058868,155.079117 477.833496,149.497086 482.555420,144.770111 
	C481.808563,145.363480 480.235596,146.246964 478.697174,147.025146 
	C468.291199,152.288834 457.936676,157.654984 447.506561,162.870148 
	C430.265442,171.490891 417.290588,185.006134 404.957916,199.368790 
	C391.034576,215.583893 381.472260,234.448517 371.548279,253.124344 
	C365.688049,264.152740 359.644287,275.083649 353.667877,286.050110 
	C352.977417,287.317108 352.461151,288.812286 350.488098,289.136810 
	C349.152283,287.289185 349.475342,285.256226 349.937653,283.433075 
	C355.958282,259.689362 362.541809,236.150833 375.241882,214.861771 
	C397.169220,178.105042 428.152191,151.942871 467.596191,135.577286 
	C494.894867,124.250862 523.658630,117.759483 551.983582,109.818840 
	C553.561523,109.376472 555.532043,108.122482 557.072693,110.975540 
	C551.365051,116.842964 544.828064,121.882721 537.950012,126.512062 
	C524.282349,135.711227 509.590759,143.353973 496.766296,153.841965 
	C483.009460,165.092468 470.643951,177.565552 461.484924,192.944580 
	C461.073639,193.635178 460.875671,194.452820 460.417236,195.622284 
	C464.776093,196.280838 468.449493,194.493256 472.046692,193.409103 
	C493.598419,186.913635 515.783813,185.539581 537.776489,188.027115 
	C566.680603,191.296417 594.121155,199.917694 617.240601,218.781799 
	C629.073853,228.436966 639.771545,239.096695 645.410889,253.776459 
	C646.512573,256.644226 647.901489,259.466431 647.478394,263.321564 
	C638.413513,257.374603 629.388733,252.496994 620.476257,247.421829 
	C601.005005,236.333969 580.454224,228.636459 557.968994,226.660736 
	C543.040466,225.349014 528.403625,227.392166 513.881653,230.506058 
	C482.053864,237.330780 453.900208,252.040710 427.644104,270.832275 
	C425.477386,272.383026 425.205475,274.238770 425.365540,276.442352 
	C426.039734,285.722412 426.655518,295.008514 427.489716,304.274658 
	C428.636230,317.009583 430.344116,329.704895 431.129028,342.459198 
	C432.733673,368.533234 433.962769,394.631470 435.200226,420.726715 
	C436.787354,454.196655 436.334930,487.694000 436.243927,521.183594 
	C436.225433,527.998169 436.418365,534.803772 435.650513,541.645264 
	C435.189697,545.750916 433.760620,547.227966 429.920990,547.106934 
	C427.788055,547.039673 425.644745,547.759216 423.463593,547.090027 
	C422.125153,545.296143 422.872192,543.225647 422.652161,540.822632 
M589.266846,218.564896 
	C590.297974,218.766724 591.329102,218.968567 593.771179,219.446609 
	C585.403564,215.467255 578.308777,212.192780 570.856201,209.879028 
	C549.862976,203.361343 528.438171,200.024551 506.442352,202.591766 
	C483.570221,205.261292 461.980133,212.091522 441.635010,223.010559 
	C423.844635,232.558426 407.557556,244.025513 394.947266,259.912903 
	C381.630737,276.690094 372.204071,295.884918 362.508881,314.864319 
	C362.142639,315.581360 361.714508,316.382812 362.549042,317.245300 
	C364.839722,317.381378 365.380127,315.354431 366.312866,313.919769 
	C367.672485,311.828522 368.676361,309.485504 370.170441,307.505219 
	C393.493500,276.591888 422.077911,251.622162 456.454224,233.854004 
	C478.286133,222.569717 501.738190,215.885941 526.400208,213.388062 
	C547.522949,211.248688 568.201965,212.384811 589.266846,218.564896 
M286.145050,161.342239 
	C282.247467,156.284332 277.874756,151.689346 272.220856,146.549408 
	C274.745758,150.832504 276.574646,153.980240 278.446198,157.102417 
	C292.379089,180.345688 301.593018,205.283798 305.106567,232.202591 
	C305.725952,236.947983 306.416504,242.077927 305.221375,246.533264 
	C304.368500,249.712509 305.083801,251.365326 306.562103,253.498825 
	C312.947723,262.714691 318.028870,272.495514 321.397430,283.301910 
	C325.717316,297.160217 330.840118,310.768280 335.616974,324.484161 
	C336.061676,324.395569 336.506409,324.307007 336.951111,324.218414 
	C335.713531,309.565460 334.623047,294.898254 333.200562,280.263275 
	C331.487518,262.639252 326.708801,245.763382 321.222321,228.939331 
	C313.294037,204.627457 302.598755,181.943054 286.145050,161.342239 
M303.931641,274.482117 
	C302.794098,272.074158 301.639313,269.674194 300.521942,267.256927 
	C295.108856,255.546738 286.451782,247.431503 274.498932,242.364456 
	C258.330597,235.510361 241.414261,232.413071 224.069458,231.466873 
	C199.710205,230.137985 176.899002,236.279587 155.302048,247.142914 
	C149.347534,250.138062 143.277130,253.181870 138.368423,257.992737 
	C140.115646,257.955536 141.710358,257.637115 143.215424,257.077545 
	C167.437119,248.072098 192.156021,242.997681 218.299454,244.432022 
	C240.423553,245.645859 260.848663,251.201187 279.816681,262.512604 
	C289.137970,268.071320 298.012390,274.232849 306.874664,282.518982 
	C305.689301,279.203949 304.965515,277.179779 303.931641,274.482117 
z"/>
<path fill="#000000" opacity="1.000000" stroke="none" 
	d="
M483.995819,569.417358 
	C368.100769,568.749268 252.704773,568.080750 137.365387,567.412476 
	C136.384338,564.785278 137.946655,562.809326 137.762360,560.668335 
	C137.583618,558.591675 138.898544,557.701111 140.882629,557.689331 
	C143.547943,557.673584 146.213226,557.633057 148.878510,557.635986 
	C249.003250,557.747986 349.131866,557.372498 449.251312,558.162231 
	C509.882538,558.640442 570.515137,558.250366 631.142212,559.056335 
	C633.633057,559.089417 636.128784,559.627197 638.607178,559.533142 
	C642.457397,559.387024 643.125061,561.361755 643.417908,564.747070 
	C643.838989,569.614563 641.679321,570.683777 637.402771,570.652954 
	C594.591064,570.344360 551.778442,570.160645 508.966370,569.893616 
	C500.808533,569.842773 492.652008,569.581238 483.995819,569.417358 
z"/>
<path fill="#000000" opacity="1.000000" stroke="none" 
	d="
M342.681274,527.019043 
	C340.905243,510.551788 339.518616,494.489349 337.258362,478.550751 
	C335.481720,466.022308 334.768005,453.433777 333.845917,440.860321 
	C332.495544,422.446503 329.688354,404.261414 326.410889,386.125549 
	C324.256622,374.204773 322.086761,362.286713 319.958221,350.361359 
	C319.768158,349.296631 319.294922,348.071991 320.584381,347.253235 
	C330.438568,359.564911 379.009888,532.095032 376.841217,547.493408 
	C373.814636,547.398926 370.766357,546.202148 366.946106,547.564148 
	C362.220947,525.599548 357.991547,503.877106 354.013672,480.918884 
	C352.451569,492.881561 354.068329,503.626099 354.417297,514.372070 
	C354.772186,525.300110 355.711090,536.209167 356.445099,547.938477 
	C352.650604,545.739929 349.022461,546.506592 345.048645,546.233215 
	C344.253052,539.895935 343.473541,533.686646 342.681274,527.019043 
z"/>
<path fill="#000000" opacity="1.000000" stroke="none" 
	d="
M466.292542,493.161438 
	C460.304688,508.770416 457.244446,524.874573 451.695679,540.224304 
	C449.991852,544.937683 448.719025,548.683350 442.640442,546.824341 
	C441.791229,546.564575 440.712250,547.056091 439.363525,547.255371 
	C439.153961,541.873291 440.830170,537.036255 442.216705,532.230774 
	C450.738708,502.695312 459.442352,473.212341 468.014709,443.691284 
	C475.947021,416.374451 480.409088,388.316559 485.618347,360.420959 
	C490.417511,334.721405 497.369324,309.619141 506.371674,285.080078 
	C506.599884,284.458008 507.022064,283.904327 507.228363,283.277466 
	C507.922455,281.167938 509.374329,280.311798 511.457184,280.923737 
	C513.681763,281.577301 513.228882,283.395599 512.940735,285.056824 
	C510.984802,296.332703 509.197784,307.641174 507.036469,318.877625 
	C500.895416,350.804901 494.889496,382.762604 488.278168,414.593597 
	C482.767090,441.127502 475.184601,467.136292 466.292542,493.161438 
z"/>
<path fill="#000000" opacity="1.000000" stroke="none" 
	d="
M467.698730,508.821045 
	C476.525818,486.893524 490.217346,468.528137 506.965210,452.935089 
	C522.755737,438.233398 531.656860,419.907013 540.335815,400.952362 
	C548.445618,383.240570 558.031067,366.262329 568.167480,349.610901 
	C569.713135,347.071808 571.431702,345.575806 574.058960,347.824860 
	C576.297791,349.741333 580.563843,350.571045 578.039917,355.388733 
	C563.758362,382.649689 549.733765,410.043640 536.481628,437.823700 
	C533.461243,444.155304 528.483398,448.848022 523.659546,453.645111 
	C509.458435,467.767792 495.686584,482.231171 486.492340,500.305389 
	C478.813904,515.399719 471.475098,530.659607 465.321259,546.820312 
	C462.198029,546.309509 458.795288,546.330688 455.187592,547.233337 
	C456.324768,533.242371 462.731689,521.466003 467.698730,508.821045 
z"/>
<path fill="#000000" opacity="1.000000" stroke="none" 
	d="
M283.908203,417.187744 
	C301.923431,459.895020 320.937592,501.806915 335.520508,545.450806 
	C334.093170,546.032410 333.796234,546.249207 333.489197,546.264587 
	C323.633942,546.756653 323.647583,546.748657 320.234650,537.567017 
	C310.603180,511.656128 299.382965,486.379761 289.262878,460.679993 
	C276.974548,429.474030 262.586975,399.309662 247.702835,369.330566 
	C243.557617,360.981476 239.332947,352.671753 235.189392,344.321838 
	C234.452789,342.837433 233.953156,341.236786 233.314316,339.702209 
	C232.350143,337.386169 233.900192,336.338348 235.505661,335.337585 
	C237.261215,334.243286 238.260361,335.392822 239.224960,336.637573 
	C245.258575,344.423401 250.264984,352.872314 255.348892,361.285706 
	C266.136200,379.137665 275.036530,397.940125 283.908203,417.187744 
z"/>
<path fill="#000000" opacity="1.000000" stroke="none" 
	d="
M229.221298,435.702606 
	C218.425888,418.638245 205.971985,403.172760 194.988800,386.679016 
	C193.225159,384.030487 191.656204,381.323822 190.487091,378.361847 
	C189.830383,376.698029 190.117035,375.509277 191.620972,374.518311 
	C193.080124,373.556854 194.466156,373.542938 195.698196,374.760895 
	C196.877228,375.926514 197.909332,377.239655 199.024307,378.471375 
	C214.567184,395.641418 229.423279,413.332855 242.070023,432.821899 
	C246.628357,439.846466 253.874893,444.494781 259.635071,450.495941 
	C273.247040,464.677368 287.194794,478.613373 297.143372,495.761688 
	C305.353607,509.913666 311.493958,525.012756 315.690247,540.860962 
	C315.985596,541.976379 316.131897,543.144409 316.215698,544.297485 
	C316.262085,544.935791 316.034729,545.593994 315.864319,546.658386 
	C312.780182,546.866089 309.696472,547.073730 306.359375,547.298462 
	C301.537872,538.539124 298.892792,528.866882 295.115601,519.693604 
	C288.749939,504.234070 279.833435,490.517090 269.005157,477.992554 
	C258.996887,466.416565 248.920319,454.868164 236.636703,445.515259 
	C233.422379,443.067841 231.597885,439.352417 229.221298,435.702606 
z"/>
<path fill="#000000" opacity="1.000000" stroke="none" 
	d="
M230.999725,535.339722 
	C196.572281,535.339905 162.644867,535.339905 128.455399,535.339905 
	C127.065773,532.200500 127.973389,528.692993 127.948608,525.278320 
	C127.936295,523.582275 129.222656,523.334351 130.768036,523.323608 
	C141.238739,523.250732 151.738235,522.511169 162.172852,523.054382 
	C184.300125,524.206543 206.397171,523.100037 228.506271,523.009460 
	C240.989288,522.958313 253.479645,523.037964 265.951141,522.608154 
	C271.254761,522.425354 271.389648,525.203979 271.413727,529.099304 
	C271.437988,533.031250 271.235504,535.654724 265.950470,535.470154 
	C254.479355,535.069580 242.984756,535.342163 230.999725,535.339722 
z"/>
<path fill="#000000" opacity="1.000000" stroke="none" 
	d="
M611.999878,540.338257 
	C581.843384,540.331482 552.186951,540.324280 522.530457,540.317688 
	C512.915039,540.315552 512.575623,539.894348 514.227661,529.527222 
	C537.703430,528.545715 561.261169,527.921631 584.838379,527.895874 
	C605.997192,527.872681 627.155945,527.741699 648.314697,527.670715 
	C655.323730,527.647156 655.325073,527.664856 655.347473,534.827637 
	C655.353210,536.652161 655.348328,538.476746 655.348328,541.023743 
	C640.938049,539.960510 626.719299,540.485962 611.999878,540.338257 
z"/>
<path fill="#000000" opacity="1.000000" stroke="none" 
	d="
M209.015961,505.437012 
	C190.893188,505.656708 173.267273,505.875488 155.641357,506.095062 
	C152.147583,506.138580 148.682449,505.898285 145.196777,505.561096 
	C142.023544,505.254089 140.980804,503.921112 140.824402,500.861023 
	C140.415070,492.851929 140.299988,492.857910 148.401367,492.856689 
	C180.338440,492.851868 212.275543,492.826111 244.212540,492.873535 
	C247.524887,492.878448 250.833298,493.408173 254.149567,493.529175 
	C257.044708,493.634827 258.146271,494.972717 258.330383,497.860168 
	C258.839813,505.848572 258.791077,506.067352 250.913208,505.985748 
	C237.112656,505.842804 223.312912,505.623688 209.015961,505.437012 
z"/>
<path fill="#000000" opacity="1.000000" stroke="none" 
	d="
M599.000122,498.651001 
	C609.321777,498.536743 619.144775,498.483032 628.964294,498.270172 
	C631.677185,498.211334 632.866577,499.156250 633.107544,501.920868 
	C633.778198,509.613800 632.888733,510.478302 625.447693,510.474640 
	C593.968018,510.459045 562.488403,510.587921 531.008728,510.642517 
	C528.513550,510.646851 525.993835,510.228668 523.528076,510.460083 
	C519.000122,510.885010 517.500977,509.195831 517.498352,504.567749 
	C517.495667,499.923401 519.065979,498.603485 523.542542,498.628967 
	C548.527588,498.771362 573.514099,498.669708 599.000122,498.651001 
z"/>
</svg>